<svg width="512" height="512" viewBox="0 0 512 512" fill="none" xmlns="http://www.w3.org/2000/svg">
<path d="M256.62 204.157L106.267 247.41V180.28H405.761V247.405L257.176 204.158L256.898 204.077L256.62 204.157Z" fill="#EFB1FF" stroke="#481380" stroke-width="2"/>
<path d="M151.634 107.222H150.634V108.222V145.362V146.362H151.634H206.927H207.927V145.362V108.222V107.222H206.927H151.634ZM228.353 107.222H227.353V108.222V145.362V146.362H228.353H283.646H284.646V145.362V108.222V107.222H283.646H228.353ZM361.37 108.222V107.222H360.37H305.076H304.076V108.222V145.362V146.362H305.076H360.37H361.37V145.362V108.222ZM133.017 89.8419H378.989V163.761H133.017V89.8419Z" fill="#EFB1FF" stroke="#481380" stroke-width="2"/>
<path d="M197.261 1H314.774V73.3009H197.261V1Z" fill="#EFB1FF" stroke="#481380" stroke-width="2"/>
<path d="M1.54215 296.153L243.504 225.806L255.875 361.867L257.868 361.855L268.486 225.804L510.458 296.153L402.537 470.761L256.895 510.963L109.462 470.759L1.54215 296.153ZM348.068 278.438L347.98 278.422H347.89C343.258 278.422 339.015 279.677 335.905 282.058C332.799 284.437 330.862 287.915 330.83 292.233C329.901 296.597 331.372 300.535 334.247 303.355C337.107 306.161 341.338 307.855 345.99 307.881C349.886 308.723 354.151 307.384 357.419 304.849C360.726 302.284 363.16 298.38 363.16 293.962C363.16 286.925 357.37 280.127 348.068 278.438ZM389.134 288.147L389.025 288.122H388.912C385.131 288.122 381.352 289.4 378.499 291.551C375.646 293.702 373.642 296.797 373.642 300.422C373.642 304.699 375.064 308.174 377.471 310.791C379.866 313.394 383.183 315.092 386.902 315.936L387.011 315.961H387.123C390.904 315.961 394.684 314.683 397.536 312.532C400.361 310.403 402.353 307.349 402.393 303.772C403.325 299.402 401.845 295.868 399.203 293.258C396.577 290.664 392.818 288.983 389.134 288.147ZM431.991 297.844L431.725 298.316V297.822C427.944 297.822 424.164 299.1 421.312 301.251C418.458 303.402 416.454 306.496 416.454 310.121C416.454 312.876 417.952 315.942 420.313 318.295C422.693 320.666 426.057 322.421 429.935 322.421C432.784 322.421 436.1 321.564 438.731 319.828C441.381 318.08 443.416 315.375 443.416 311.721C443.416 304.671 437.619 299.543 431.991 297.844Z" fill="#EFB1FF" stroke="#481380" stroke-width="2"/>
</svg>
