<svg width="512" height="512" viewBox="0 0 512 512" fill="none" xmlns="http://www.w3.org/2000/svg">
<path fill-rule="evenodd" clip-rule="evenodd" d="M105.267 179.281H406.761V248.738L256.896 205.118L105.267 248.738V179.281Z" fill="#7F78D2"/>
<path fill-rule="evenodd" clip-rule="evenodd" d="M132.017 88.8418H379.989V164.761H132.017V88.8418ZM151.634 108.222H206.927V145.362H151.634V108.222ZM228.353 108.222H283.646V145.362H228.353V108.222ZM360.37 108.222H305.076V145.362H360.37V108.222Z" fill="#7F78D2"/>
<path fill-rule="evenodd" clip-rule="evenodd" d="M196.261 0H315.774V74.3009H196.261V0Z" fill="#7F78D2"/>
<path fill-rule="evenodd" clip-rule="evenodd" d="M244.415 224.5L0 295.56L108.819 471.62L256.896 512L403.181 471.62L512 295.56L267.585 224.5L256.871 361.777L244.39 224.5H244.415ZM347.89 279.422C356.814 281.042 362.16 287.502 362.16 293.962C362.16 302.042 353.236 308.501 346.1 306.881C337.176 306.881 330.041 300.422 331.83 292.342C331.83 284.262 338.965 279.422 347.89 279.422ZM388.912 289.122C396.048 290.742 403.183 295.582 401.394 303.662C401.394 310.121 394.258 314.961 387.123 314.961C379.988 313.341 374.642 308.501 374.642 300.422C374.642 293.962 381.777 289.122 388.912 289.122ZM431.725 298.822C424.589 298.822 417.454 303.662 417.454 310.121C417.454 314.961 422.8 321.421 429.935 321.421C435.281 321.421 442.416 318.181 442.416 311.721C442.416 305.262 437.07 300.422 431.702 298.802L431.725 298.822Z" fill="#7F78D2"/>
<rect x="303.199" y="106.219" width="59.3215" height="39.3846" fill="#FACBE3"/>
<rect x="150.281" y="106.219" width="59.3215" height="39.3846" fill="#FACBE3"/>
<rect x="226.74" y="106.219" width="59.3215" height="39.3846" fill="#FACBE3"/>
<ellipse cx="346.701" cy="293.594" rx="15.8191" ry="14.3217" fill="#FACBE3"/>
<ellipse cx="387.567" cy="300.755" rx="15.8191" ry="14.3217" fill="#FACBE3"/>
<ellipse cx="428.433" cy="307.916" rx="15.8191" ry="14.3217" fill="#FACBE3"/>
</svg>
